
<svg fill="#fb923c" version="1.1" id="Capa_1" xmlns="http://www.w3.org/2000/svg" xmlns:xlink="http://www.w3.org/1999/xlink" 
	 width="800px" height="800px" viewBox="0 0 97.625 97.625"
	 xml:space="preserve">
<g>
	<g>
		<path d="M83.158,83.242c-0.756-14.645-4.684-24.402-9.584-30.707v17.988h-6.869l3.075,7.172L56.433,97.098
			c6.343-0.85,11.291-2.867,14.159-6.023c0,0,6.595-0.338,6.721-0.347C80.753,90.5,83.358,87.148,83.158,83.242z"/>
		<path d="M30.925,70.525h-6.871V52.539c-4.896,6.299-8.835,16.056-9.587,30.701c-0.201,3.908,2.406,7.26,5.848,7.485
			c0.123,0.009,6.729,0.345,6.729,0.345c2.929,3.322,8.058,5.203,14.153,6.01L27.852,77.695L30.925,70.525z"/>
		<path d="M61.88,67.462h8.564V49.16c-1.631-1.464-3.126-2.65-4.691-3.599c-0.005-0.004-17.069,42.065-17.069,42.065l-16.92-42.144
			c-1.618,0.958-3.219,2.174-4.854,3.686v18.293h8.571l-4.249,9.935L45.068,97.52c1.232,0.07,2.485,0.105,3.76,0.105
			c1.185,0,2.336-0.034,3.461-0.094L66.13,77.396L61.88,67.462z"/>
		<path d="M30.325,36.421c3.487,9.023,10.051,14.952,18.49,14.952c8.062,0,15.047-5.706,18.496-14.952
			c3.62-0.336,5.518-3.832,6.224-7.954c0.841-4.926-0.927-7.329-4.042-7.867C68.429,9.031,65.104,0,48.814,0
			C32.431,0,29.196,9.031,28.136,20.6c-3.115,0.538-4.884,2.94-4.041,7.867C24.808,32.638,26.771,36.111,30.325,36.421z
			 M52.631,17.376c1.024,2.052,3.953,6.063,11.581,7.866c-0.719,11.876-6.973,20.27-15.398,20.27c-7.935,0-13.49-7.307-15.06-17.375
			C44.604,27.39,51.555,18.8,52.631,17.376z"/>
	</g>
</g>
</svg>